<svg class="nmr-svg"  viewBox="0 0 560 234" width="560"  height="234"  version="1.1" xmlns="http://www.w3.org/2000/svg">
      <style></style>

  <style> text {font-family: sans-serif;} #molSVG0 { pointer-events:none; } #molSVG0 .event  { pointer-events:all; } line { stroke-linecap:round; } polygon { stroke-linejoin:round; } </style>
  <text x="326.05" y="175.19" stroke="none" font-size="14" fill="rgb(255,13,13)">O</text>
  <text x="336.94" y="175.19" stroke="none" font-size="14" fill="rgb(255,13,13)">H</text>
  <text x="281.56" y="98.88" stroke="none" font-size="14" fill="rgb(255,13,13)">O</text>
  <text x="271.45" y="98.88" stroke="none" font-size="14" fill="rgb(255,13,13)">H</text>
  <line x1="310.9" y1="158.63" x2="310.9" y2="134.84" stroke="rgb(0,0,0)" stroke-width="1.44"></line>
  <line x1="307.3" y1="156.06" x2="307.3" y2="137.4" stroke="rgb(0,0,0)" stroke-width="1.44"></line>
  <line x1="290.3" y1="122.95" x2="269.7" y2="134.84" stroke="rgb(0,0,0)" stroke-width="1.44"></line>
  <line x1="289.88" y1="127.34" x2="273.72" y2="136.68" stroke="rgb(0,0,0)" stroke-width="1.44"></line>
  <line x1="269.7" y1="158.63" x2="290.3" y2="170.52" stroke="rgb(0,0,0)" stroke-width="1.44"></line>
  <line x1="273.72" y1="156.79" x2="289.88" y2="166.12" stroke="rgb(0,0,0)" stroke-width="1.44"></line>
  <line x1="352.1" y1="134.84" x2="372.7" y2="122.95" stroke="rgb(0,0,0)" stroke-width="1.44"></line>
  <line x1="352.51" y1="130.44" x2="368.68" y2="121.11" stroke="rgb(0,0,0)" stroke-width="1.44"></line>
  <line x1="310.9" y1="87.27" x2="310.9" y2="63.48" stroke="rgb(0,0,0)" stroke-width="1.44"></line>
  <line x1="314.5" y1="84.71" x2="314.5" y2="63.48" stroke="rgb(0,0,0)" stroke-width="1.44"></line>
  <line x1="325.05" y1="166.8" x2="310.9" y2="158.63" stroke="rgb(0,0,0)" stroke-width="1.44"></line>
  <line x1="310.9" y1="134.84" x2="290.3" y2="122.95" stroke="rgb(0,0,0)" stroke-width="1.44"></line>
  <line x1="290.3" y1="122.95" x2="287.81" y2="101.21" stroke="rgb(0,0,0)" stroke-width="1.44"></line>
  <line x1="269.7" y1="134.84" x2="269.7" y2="158.63" stroke="rgb(0,0,0)" stroke-width="1.44"></line>
  <line x1="310.9" y1="158.63" x2="290.3" y2="170.52" stroke="rgb(0,0,0)" stroke-width="1.44"></line>
  <line x1="269.7" y1="158.63" x2="249.1" y2="170.52" stroke="rgb(0,0,0)" stroke-width="1.44"></line>
  <line x1="249.1" y1="170.52" x2="228.5" y2="158.63" stroke="rgb(0,0,0)" stroke-width="1.44"></line>
  <line x1="228.5" y1="158.63" x2="207.9" y2="170.52" stroke="rgb(0,0,0)" stroke-width="1.44"></line>
  <line x1="207.9" y1="170.52" x2="187.3" y2="158.63" stroke="rgb(0,0,0)" stroke-width="1.44"></line>
  <line x1="187.3" y1="158.63" x2="166.7" y2="170.52" stroke="rgb(0,0,0)" stroke-width="1.44"></line>
  <polygon points="331,123 321,128 322,130 " fill="rgb(0,0,0)" stroke="rgb(0,0,0)" stroke-width="1.44"></polygon>
  <polygon points="322,130 321,128 310,133 312,137 " fill="rgb(0,0,0)" stroke="rgb(0,0,0)" stroke-width="1.44"></polygon>
  <line x1="331.5" y1="122.95" x2="352.1" y2="134.84" stroke="rgb(0,0,0)" stroke-width="1.44"></line>
  <line x1="372.7" y1="122.95" x2="372.7" y2="99.16" stroke="rgb(0,0,0)" stroke-width="1.44"></line>
  <line x1="372.7" y1="99.16" x2="352.1" y2="87.27" stroke="rgb(0,0,0)" stroke-width="1.44"></line>
  <line x1="352.1" y1="87.27" x2="331.5" y2="99.16" stroke="rgb(0,0,0)" stroke-width="1.44"></line>
  <line x1="331.5" y1="122.95" x2="331.5" y2="99.16" stroke="rgb(0,0,0)" stroke-width="1.44"></line>
  <line x1="329.26" y1="97.44" x2="328.89" y2="98.08" stroke="rgb(0,0,0)" stroke-width="1.44"></line>
  <line x1="327.02" y1="95.72" x2="326.28" y2="97.01" stroke="rgb(0,0,0)" stroke-width="1.44"></line>
  <line x1="324.79" y1="94" x2="323.67" y2="95.93" stroke="rgb(0,0,0)" stroke-width="1.44"></line>
  <line x1="322.55" y1="92.28" x2="321.06" y2="94.85" stroke="rgb(0,0,0)" stroke-width="1.44"></line>
  <line x1="320.31" y1="90.56" x2="318.45" y2="93.77" stroke="rgb(0,0,0)" stroke-width="1.44"></line>
  <line x1="318.07" y1="88.83" x2="315.84" y2="92.7" stroke="rgb(0,0,0)" stroke-width="1.44"></line>
  <line x1="315.83" y1="87.11" x2="313.23" y2="91.62" stroke="rgb(0,0,0)" stroke-width="1.44"></line>
  <line x1="313.6" y1="85.39" x2="310.62" y2="90.54" stroke="rgb(0,0,0)" stroke-width="1.44"></line>
  <line x1="310.9" y1="87.27" x2="293.45" y2="97.34" stroke="rgb(0,0,0)" stroke-width="1.44"></line>
  <line x1="372.7" y1="122.95" x2="393.3" y2="134.84" stroke="rgb(0,0,0)" stroke-width="1.44"></line>
  <line id="molSVG0:Bond:1" class="event" x1="310.9" y1="158.63" x2="310.9" y2="134.84" stroke-width="8" opacity="0"></line>
  <line id="molSVG0:Bond:4" class="event" x1="290.3" y1="122.95" x2="269.7" y2="134.84" stroke-width="8" opacity="0"></line>
  <line id="molSVG0:Bond:6" class="event" x1="269.7" y1="158.63" x2="290.3" y2="170.52" stroke-width="8" opacity="0"></line>
  <line id="molSVG0:Bond:15" class="event" x1="352.1" y1="134.84" x2="372.7" y2="122.95" stroke-width="8" opacity="0"></line>
  <line id="molSVG0:Bond:21" class="event" x1="310.9" y1="87.27" x2="310.9" y2="63.48" stroke-width="8" opacity="0"></line>
  <line id="molSVG0:Bond:0" class="event" x1="331.5" y1="170.52" x2="310.9" y2="158.63" stroke-width="8" opacity="0"></line>
  <line id="molSVG0:Bond:2" class="event" x1="310.9" y1="134.84" x2="290.3" y2="122.95" stroke-width="8" opacity="0"></line>
  <line id="molSVG0:Bond:3" class="event" x1="290.3" y1="122.95" x2="287" y2="94.21" stroke-width="8" opacity="0"></line>
  <line id="molSVG0:Bond:5" class="event" x1="269.7" y1="134.84" x2="269.7" y2="158.63" stroke-width="8" opacity="0"></line>
  <line id="molSVG0:Bond:7" class="event" x1="310.9" y1="158.63" x2="290.3" y2="170.52" stroke-width="8" opacity="0"></line>
  <line id="molSVG0:Bond:8" class="event" x1="269.7" y1="158.63" x2="249.1" y2="170.52" stroke-width="8" opacity="0"></line>
  <line id="molSVG0:Bond:9" class="event" x1="249.1" y1="170.52" x2="228.5" y2="158.63" stroke-width="8" opacity="0"></line>
  <line id="molSVG0:Bond:10" class="event" x1="228.5" y1="158.63" x2="207.9" y2="170.52" stroke-width="8" opacity="0"></line>
  <line id="molSVG0:Bond:11" class="event" x1="207.9" y1="170.52" x2="187.3" y2="158.63" stroke-width="8" opacity="0"></line>
  <line id="molSVG0:Bond:12" class="event" x1="187.3" y1="158.63" x2="166.7" y2="170.52" stroke-width="8" opacity="0"></line>
  <line id="molSVG0:Bond:13" class="event" x1="331.5" y1="122.95" x2="310.9" y2="134.84" stroke-width="8" opacity="0"></line>
  <line id="molSVG0:Bond:14" class="event" x1="331.5" y1="122.95" x2="352.1" y2="134.84" stroke-width="8" opacity="0"></line>
  <line id="molSVG0:Bond:16" class="event" x1="372.7" y1="122.95" x2="372.7" y2="99.16" stroke-width="8" opacity="0"></line>
  <line id="molSVG0:Bond:17" class="event" x1="372.7" y1="99.16" x2="352.1" y2="87.27" stroke-width="8" opacity="0"></line>
  <line id="molSVG0:Bond:18" class="event" x1="352.1" y1="87.27" x2="331.5" y2="99.16" stroke-width="8" opacity="0"></line>
  <line id="molSVG0:Bond:19" class="event" x1="331.5" y1="122.95" x2="331.5" y2="99.16" stroke-width="8" opacity="0"></line>
  <line id="molSVG0:Bond:20" class="event" x1="331.5" y1="99.16" x2="310.9" y2="87.27" stroke-width="8" opacity="0"></line>
  <line id="molSVG0:Bond:22" class="event" x1="310.9" y1="87.27" x2="290.3" y2="99.16" stroke-width="8" opacity="0"></line>
  <line id="molSVG0:Bond:23" class="event" x1="372.7" y1="122.95" x2="393.3" y2="134.84" stroke-width="8" opacity="0"></line>
  <circle id="molSVG0:Atom:0" class="event" cx="331.5" cy="170.52" r="8" opacity="0"></circle>
  <circle id="molSVG0:Atom:1" class="event" cx="310.9" cy="158.63" r="8" opacity="0"></circle>
  <circle id="molSVG0:Atom:2" class="event" cx="310.9" cy="134.84" r="8" opacity="0"></circle>
  <circle id="molSVG0:Atom:3" class="event" cx="290.3" cy="122.95" r="8" opacity="0"></circle>
  <circle id="molSVG0:Atom:4" class="event" cx="287" cy="94.21" r="8" opacity="0"></circle>
  <circle id="molSVG0:Atom:5" class="event" cx="269.7" cy="134.84" r="8" opacity="1" fill="#ffd70080"></circle>
  <circle id="molSVG0:Atom:6" class="event" cx="269.7" cy="158.63" r="8" opacity="0"></circle>
  <circle id="molSVG0:Atom:7" class="event" cx="290.3" cy="170.52" r="8" opacity="1" fill="#ffd70080"></circle>
  <circle id="molSVG0:Atom:8" class="event" cx="249.1" cy="170.52" r="8" opacity="1" fill="#ffd70080"></circle>
  <circle id="molSVG0:Atom:9" class="event" cx="228.5" cy="158.63" r="8" opacity="1" fill="#ffd70080"></circle>
  <circle id="molSVG0:Atom:10" class="event" cx="207.9" cy="170.52" r="8" opacity="1" fill="#ffd70080"></circle>
  <circle id="molSVG0:Atom:11" class="event" cx="187.3" cy="158.63" r="8" opacity="1" fill="#ffd70080"></circle>
  <circle id="molSVG0:Atom:12" class="event" cx="166.7" cy="170.52" r="8" opacity="1" fill="#ffd70080"></circle>
  <circle id="molSVG0:Atom:13" class="event" cx="331.5" cy="122.95" r="8" opacity="1" fill="#ffd70080"></circle>
  <circle id="molSVG0:Atom:14" class="event" cx="352.1" cy="134.84" r="8" opacity="1" fill="#ffd70080"></circle>
  <circle id="molSVG0:Atom:15" class="event" cx="372.7" cy="122.95" r="8" opacity="0"></circle>
  <circle id="molSVG0:Atom:16" class="event" cx="372.7" cy="99.16" r="8" opacity="1" fill="#ffd70080"></circle>
  <circle id="molSVG0:Atom:17" class="event" cx="352.1" cy="87.27" r="8" opacity="1" fill="#ffd70080"></circle>
  <circle id="molSVG0:Atom:18" class="event" cx="331.5" cy="99.16" r="8" opacity="1" fill="#ffd70080"></circle>
  <circle id="molSVG0:Atom:19" class="event" cx="310.9" cy="87.27" r="8" opacity="0"></circle>
  <circle id="molSVG0:Atom:20" class="event" cx="310.9" cy="63.48" r="8" opacity="1" fill="#ffd70080"></circle>
  <circle id="molSVG0:Atom:21" class="event" cx="290.3" cy="99.16" r="8" opacity="1" fill="#ffd70080"></circle>
  <circle id="molSVG0:Atom:22" class="event" cx="393.3" cy="134.84" r="8" opacity="1" fill="#ffd70080"></circle>
</svg>